<?xml version="1.0" encoding="UTF-8"?>
<svg id="Layer_1" data-name="Layer 1" xmlns="http://www.w3.org/2000/svg" version="1.1" viewBox="0 0 1035.7 896.4">
  <defs>
    <style>
      .cls-1 {
        fill: none;
      }

      .cls-1, .cls-2 {
        stroke-width: 0px;
      }

      .cls-2 {
        fill: #0078ff;
      }
    </style>
  </defs>
  <rect class="cls-1" width="1035.7" height="896.4"/>
  <path class="cls-2" d="M218.1,560.2l-7.6,21c-.5,1.3-1.3,1.8-2.6,1.8h-35.3v38.8c0,1.1-.8,1.9-1.9,1.9h-22.8c-1.1,0-1.9-.8-1.9-1.9v-110.1c0-1.1.8-1.9,1.9-1.9h86.2c1.1,0,1.9,1.1,1.5,2.1l-7.7,21.3c-.5,1.2-1.3,1.7-2.6,1.7h-52.7v23.1h44c1.1,0,1.9,1.1,1.5,2.1ZM509.6,437.5c1.2.8,2.5.8,3.3,0,.8-.8.8-1.7.2-2.9-8.7-23.1-15.3-47.5-19.1-71.7-.5-2.9-1.4-4.7-3.1-6.5-14.5-14.5-27.6-31.7-38.4-50.5,12.1-5.5,23-9,34.2-11.1,2-.4,3-1.6,3.2-3.4.7-15.9,2.4-31.6,5-47.1.2-1.7-.7-3.2-2.9-2.9-20.2,2.4-40.7,7.9-60.3,16.9-4.1-13.4-7.2-27.3-9-41.6,25-10.4,52.3-16.7,80.3-18.2,2,0,3.1-1,3.6-2.8,4.7-15.3,10.8-30.6,18-45.6.9-1.9,0-3.9-2.3-4-52.4-1.1-104.6,11.4-151,37.4-2,1.1-2.9,2.9-2.9,5.3.9,100.1,53.6,195.5,141,248.7ZM350.4,623.7h22.3c1.1,0,1.9-.8,1.9-1.9v-67.7l39.9,68c.7,1.2,1.5,1.7,2.9,1.7h26.2c1.1,0,1.9-.8,1.9-1.9v-110.1c0-1.1-.8-1.9-1.9-1.9h-22.3c-1.1,0-1.9.8-1.9,1.9v67.2l-39.6-67.4c-.7-1.2-1.5-1.7-2.9-1.7h-26.5c-1.1,0-1.9.8-1.9,1.9v110.1c0,1.1.8,1.9,1.9,1.9ZM249.7,621.9c-.4,1.2-1.2,1.8-2.5,1.8h-23.8c-1.1,0-1.9-1.1-1.5-2.1l39.9-110c.5-1.2,1.3-1.7,2.6-1.7h30.5c1.3,0,2.1.5,2.6,1.7l39.9,110c.4,1-.5,2.1-1.5,2.1h-24.1c-1.3,0-2.1-.6-2.5-1.8l-7.7-22.2h-44.2l-7.7,22.2ZM265.9,574.9h27.2l-13.6-39.3-13.6,39.3ZM784.6,509.8h-78.1c-1.1,0-1.9.8-1.9,1.9v110.1c0,1.1.8,1.9,1.9,1.9h78.1c1.1,0,1.9-.8,1.9-1.9v-21.4c0-1.1-.8-1.9-1.9-1.9h-53.4v-19.7h50.3c1.1,0,1.9-.8,1.9-1.9v-21.1c0-1.1-.8-1.9-1.9-1.9h-50.3v-18.8h53.4c1.1,0,1.9-.8,1.9-1.9v-21.4c0-1.1-.8-1.9-1.9-1.9ZM887.8,598.5h-52.5v-86.8c0-1.1-.8-1.9-1.9-1.9h-22.8c-1.1,0-1.9.8-1.9,1.9v110.1c0,1.1.8,1.9,1.9,1.9h77.2c1.1,0,1.9-.8,1.9-1.9v-21.4c0-1.1-.8-1.9-1.9-1.9ZM682.1,578.7v-67.1c0-1.1-.8-1.9-1.9-1.9h-22.8c-1.1,0-1.9.8-1.9,1.9v67.1c0,12.9-9.2,21.9-21.9,21.9s-21.9-9-21.9-21.9v-67.1c0-1.1-.8-1.9-1.9-1.9h-22.8c-1.1,0-1.9.8-1.9,1.9v67.1c0,27.9,19.7,47.1,48.5,47.1s48.5-19.1,48.5-47.1ZM528.6,198.6c28.3,1.5,55,7.8,79.6,18-8.1,64.7-42,121.6-90.4,159.7-1.6,1.2-2,2.8-1.6,4.8,3.4,15.3,8.1,31.1,13.9,46.7.7,1.7,2.6,2.3,4.1,1.3,79.9-54.8,127.4-145.5,128-240.3,0-2.4-.8-4.2-2.9-5.3-33.3-18.6-70.6-31-110.1-35.5-2-.2-3.4.5-4.2,2.1-7.2,14-13.5,29.1-19,45-.5,1.7.7,3.3,2.4,3.5ZM568.8,566.7c0-32.5-25-57-58.3-57h-40.5c-1.1,0-1.9.8-1.9,1.9v21.4c0,1.1.8,1.9,1.9,1.9h40.5c18.1,0,31.7,13.7,31.7,31.7s-13.7,31.7-31.7,31.7h-15.8v-50.8c0-1.1-.8-1.9-1.9-1.9h-3.9c-5.1,0-10.8,2.4-14.4,6.1-4,4-6.3,9.6-6.3,16.7v53.2c0,1.1.8,1.9,1.9,1.9h40.5c33.3,0,58.3-24.5,58.3-57ZM546.9,663.5h-65.9v13.2h26v72.3h13.8v-72.3h26.1v-13.2ZM666.8,698.6c-14.2-3.1-19.1-5-19.1-11.1s6.3-12.6,17.7-12.6,17.3,4.7,19.8,11.7h14c-2.4-13.6-12.4-24.7-33.8-24.7s-31.4,8.9-31.4,25.9,12.9,20.6,29.6,24.3c15.8,3.5,22.8,4.8,22.8,12.8s-6.6,12.4-18.1,12.4-20.1-5.1-22.7-15h-13.9c2.3,14.8,12.8,27.9,36.7,27.9s31.8-7.3,31.8-26-11.8-21-33.4-25.7ZM592.4,663.5l33,85.4h-14.6l-8.7-23h-37.1l-8.7,23h-14.6l33.1-85.4h17.6ZM597.1,712.9l-13.6-35.8-13.6,35.8h27.1ZM744.4,704.2l-22.2-40.8h-15.6l30.9,56.3v29.2h13.8v-29.4c.1,0,30.9-56,30.9-56h-15.5l-22.2,40.8ZM454.3,727.8l-41.7-64.4h-16.3v85.4h13.6v-64.4l41.7,64.4h16.3v-85.4h-13.6v64.4ZM352.1,663.5l33,85.4h-14.6l-8.7-23h-37.1l-8.7,23h-14.6l33.1-85.4h17.6ZM356.8,712.9l-13.6-35.8-13.6,35.8h27.1ZM263.4,699.7v-23h43.5l4.8-13.2h-62v85.4h13.8v-36h30.3l4.8-13.2h-35.1Z"/>
</svg>