<?xml version="1.0" encoding="UTF-8"?>
<svg id="Layer_1" data-name="Layer 1" xmlns="http://www.w3.org/2000/svg" version="1.1" viewBox="0 0 114.3 89.6">
  <defs>
    <style>
      .cls-1 {
        fill: none;
      }

      .cls-1, .cls-2 {
        stroke-width: 0px;
      }

      .cls-2 {
        fill: #fff;
      }
    </style>
  </defs>
  <rect class="cls-1" width="114.3" height="89.6"/>
  <path class="cls-2" d="M48.5,25.8c2-.9,4-1.5,6-1.7.2,0,.3.1.3.3-.3,1.6-.4,3.1-.5,4.7,0,.2-.1.3-.3.3-1.1.2-2.2.6-3.4,1.1,1.1,1.9,2.4,3.6,3.8,5.1.2.2.3.4.3.6.4,2.4,1,4.9,1.9,7.2,0,.1,0,.2,0,.3,0,0-.2,0-.3,0-8.7-5.3-14-14.9-14.1-24.9,0-.2,0-.4.3-.5,4.6-2.6,9.9-3.8,15.1-3.7.2,0,.3.2.2.4-.7,1.5-1.3,3-1.8,4.6,0,.2-.2.3-.4.3-2.8.1-5.5.8-8,1.8.2,1.4.5,2.8.9,4.2ZM58.2,19.9c-.2,0-.3-.2-.2-.3.5-1.6,1.2-3.1,1.9-4.5,0-.2.2-.2.4-.2,3.9.4,7.7,1.7,11,3.5.2.1.3.3.3.5,0,9.5-4.8,18.5-12.8,24-.2.1-.3,0-.4-.1-.6-1.6-1.1-3.1-1.4-4.7,0-.2,0-.4.2-.5,4.8-3.8,8.2-9.5,9-16-2.5-1-5.1-1.6-8-1.8ZM19.9,51.2c0-.1,0-.2.2-.2h8.6c.1,0,.2.1.2.2l-.8,2.1c0,.1-.1.2-.3.2h-5.3v2.3h4.4c.1,0,.2.1.2.2l-.8,2.1c0,.1-.1.2-.3.2h-3.5v3.9c0,.1,0,.2-.2.2h-2.3c-.1,0-.2,0-.2-.2v-11ZM31.5,51.2c0-.1.1-.2.3-.2h3.1c.1,0,.2,0,.3.2l4,11c0,0,0,.2-.2.2h-2.4c-.1,0-.2,0-.3-.2l-.8-2.2h-4.4l-.8,2.2c0,.1-.1.2-.3.2h-2.4c-.1,0-.2-.1-.2-.2l4-11ZM34.7,57.5l-1.4-3.9-1.4,3.9h2.7ZM40.2,51.2c0-.1,0-.2.2-.2h2.7c.1,0,.2,0,.3.2l4,6.7v-6.7c0-.1,0-.2.2-.2h2.2c.1,0,.2,0,.2.2v11c0,.1,0,.2-.2.2h-2.6c-.1,0-.2,0-.3-.2l-4-6.8v6.8c0,.1,0,.2-.2.2h-2.2c-.1,0-.2,0-.2-.2v-11ZM56.4,59.8c1.8,0,3.2-1.4,3.2-3.2s-1.4-3.2-3.2-3.2h-4c-.1,0-.2,0-.2-.2v-2.1c0-.1,0-.2.2-.2h4c3.3,0,5.8,2.4,5.8,5.7s-2.5,5.7-5.8,5.7h-4c-.1,0-.2,0-.2-.2v-5.3c0-.7.2-1.3.6-1.7s.9-.6,1.4-.6h.4c.1,0,.2,0,.2.2v5.1h1.6ZM63.9,57.9v-6.7c0-.1,0-.2.2-.2h2.3c.1,0,.2,0,.2.2v6.7c0,1.3.9,2.2,2.2,2.2s2.2-.9,2.2-2.2v-6.7c0-.1,0-.2.2-.2h2.3c.1,0,.2,0,.2.2v6.7c0,2.8-2,4.7-4.8,4.7s-4.8-1.9-4.8-4.7ZM83.5,55.4c.1,0,.2,0,.2.2v2.1c0,.1,0,.2-.2.2h-5v2h5.3c.1,0,.2,0,.2.2v2.1c0,.1,0,.2-.2.2h-7.8c-.1,0-.2,0-.2-.2v-11c0-.1,0-.2.2-.2h7.8c.1,0,.2,0,.2.2v2.1c0,.1,0,.2-.2.2h-5.3v1.9h5ZM88.9,59.8h5.2c.1,0,.2,0,.2.2v2.1c0,.1,0,.2-.2.2h-7.7c-.1,0-.2,0-.2-.2v-11c0-.1,0-.2.2-.2h2.3c.1,0,.2,0,.2.2v8.7ZM18.3,75c-2.4,0-3.4-1.3-3.7-2.8h1.4c.3,1,.9,1.5,2.3,1.5s1.8-.4,1.8-1.2-.7-.9-2.3-1.3c-1.7-.4-3-.8-3-2.4s1.5-2.6,3.1-2.6,3.1,1.1,3.4,2.5h-1.4c-.2-.7-.8-1.2-2-1.2s-1.8.5-1.8,1.3.5.8,1.9,1.1c2.2.5,3.3.9,3.3,2.6s-1.7,2.6-3.2,2.6ZM26.6,72h-2.1v2.9h-1.4v-8.5h3.5c1.9,0,3,1.1,3,2.8s-1.1,2.8-3,2.8ZM26.6,67.7h-2.1v3h2.1c1.1,0,1.6-.6,1.6-1.5s-.5-1.5-1.6-1.5ZM35.2,75c-2.5,0-4.4-1.9-4.4-4.4s1.9-4.4,4.4-4.4,4.4,1.9,4.4,4.4c0,2.5-1.9,4.4-4.4,4.4ZM35.2,73.7c1.7,0,3-1.3,3-3.1s-1.3-3.1-3-3.1-3,1.3-3,3.1,1.3,3.1,3,3.1ZM42.7,71.7v3.2h-1.4v-8.5h3.5c1.9,0,2.9,1.1,2.9,2.7s-.8,2.3-2.1,2.6l2.6,3.3h-1.7l-2.4-3.2h-1.3ZM44.7,70.5c1.1,0,1.7-.6,1.7-1.4s-.5-1.4-1.7-1.4h-2v2.8h2ZM52.6,67.7v7.2h-1.4v-7.2h-2.6v-1.3h6.6v1.3h-2.6ZM59.5,75c-2.4,0-3.4-1.3-3.7-2.8h1.4c.3,1,.9,1.5,2.3,1.5s1.8-.4,1.8-1.2-.7-.9-2.3-1.3c-1.7-.4-3-.8-3-2.4s1.5-2.6,3.1-2.6,3.1,1.1,3.4,2.5h-1.4c-.2-.7-.8-1.2-2-1.2s-1.8.5-1.8,1.3.5.8,1.9,1.1c2.2.5,3.3.9,3.3,2.6s-1.7,2.6-3.2,2.6ZM68,74.9h-3.7v-8.5h3.6c1.7,0,2.6.8,2.6,2.2s-.4,1.4-1.1,1.8c1,.3,1.4,1.1,1.4,2.1,0,1.5-1,2.4-2.8,2.4ZM65.7,67.7v2.2h2.1c1,0,1.4-.4,1.4-1.1s-.4-1.1-1.4-1.1h-2.1ZM68,71.1h-2.3v2.4h2.3c1.1,0,1.5-.5,1.5-1.2s-.4-1.2-1.5-1.2ZM76.6,75c-2.5,0-4.4-1.9-4.4-4.4s1.9-4.4,4.4-4.4,4.4,1.9,4.4,4.4c0,2.5-1.9,4.4-4.4,4.4ZM76.6,73.7c1.7,0,3-1.3,3-3.1s-1.3-3.1-3-3.1-3,1.3-3,3.1,1.3,3.1,3,3.1ZM86.8,75c-2.5,0-4.4-1.9-4.4-4.4s1.9-4.4,4.4-4.4,4.4,1.9,4.4,4.4c0,2.5-1.9,4.4-4.4,4.4ZM86.8,73.7c1.7,0,3-1.3,3-3.1s-1.3-3.1-3-3.1-3,1.3-3,3.1,1.3,3.1,3,3.1ZM94.3,70.8v4.1h-1.4v-8.5h1.4v3.9l3.5-3.9h1.7l-3.7,4.2,3.9,4.4h-1.7l-3.6-4.1Z"/>
</svg>