<?xml version="1.0" encoding="UTF-8"?>
<svg id="Layer_1" data-name="Layer 1" xmlns="http://www.w3.org/2000/svg" version="1.1" viewBox="0 0 91.6 79.3">
  <defs>
    <style>
      .cls-1 {
        fill: none;
      }

      .cls-1, .cls-2 {
        stroke-width: 0px;
      }

      .cls-2, .cls-3 {
        fill: #0078ff;
      }

      .cls-3 {
        font-family: Stolzl-Regular, Stolzl;
        font-size: 10.8px;
      }
    </style>
  </defs>
  <rect class="cls-1" width="91.6" height="79.3"/>
  <text class="cls-3" transform="translate(20.5 66.3)"><tspan x="0" y="0">FACEOFF</tspan></text>
  <path class="cls-2" d="M38.2,22.8c1.7-.8,3.5-1.3,5.3-1.5.2,0,.3.1.3.3-.2,1.4-.4,2.8-.4,4.2,0,.2,0,.3-.3.3-1,.2-2,.5-3,1,1,1.7,2.1,3.2,3.4,4.5.1.2.2.3.3.6.3,2.1.9,4.3,1.7,6.3,0,.1,0,.2,0,.3,0,0-.2,0-.3,0-7.7-4.7-12.4-13.1-12.5-22,0-.2,0-.4.3-.5,4.1-2.3,8.7-3.4,13.4-3.3.2,0,.3.2.2.4-.6,1.3-1.2,2.7-1.6,4,0,.2-.1.2-.3.2-2.5.1-4.9.7-7.1,1.6.2,1.3.4,2.5.8,3.7ZM46.8,17.6c-.2,0-.3-.2-.2-.3.5-1.4,1-2.7,1.7-4,0-.1.2-.2.4-.2,3.5.4,6.8,1.5,9.7,3.1.2,0,.3.3.3.5,0,8.4-4.3,16.4-11.3,21.3-.1,0-.3,0-.4-.1-.5-1.4-.9-2.8-1.2-4.1,0-.2,0-.3.1-.4,4.3-3.4,7.3-8.4,8-14.1-2.2-.9-4.5-1.5-7-1.6ZM12.9,45.3c0-.1,0-.2.2-.2h7.6c0,0,.2.1.1.2l-.7,1.9c0,.1-.1.2-.2.2h-4.7v2h3.9c0,0,.2.1.1.2l-.7,1.9c0,.1-.1.2-.2.2h-3.1v3.4c0,.1,0,.2-.2.2h-2c-.1,0-.2,0-.2-.2v-9.7ZM23.2,45.3c0-.1.1-.2.2-.2h2.7c.1,0,.2,0,.2.2l3.5,9.7c0,0,0,.2-.1.2h-2.1c-.1,0-.2,0-.2-.2l-.7-2h-3.9l-.7,2c0,.1-.1.2-.2.2h-2.1c0,0-.2-.1-.1-.2l3.5-9.7ZM25.9,50.9l-1.2-3.5-1.2,3.5h2.4ZM30.8,45.3c0-.1,0-.2.2-.2h2.3c.1,0,.2,0,.3.1l3.5,6v-5.9c0-.1,0-.2.2-.2h2c.1,0,.2,0,.2.2v9.7c0,.1,0,.2-.2.2h-2.3c-.1,0-.2,0-.3-.1l-3.5-6v6c0,.1,0,.2-.2.2h-2c-.1,0-.2,0-.2-.2v-9.7ZM45.2,53c1.6,0,2.8-1.2,2.8-2.8s-1.2-2.8-2.8-2.8h-3.6c-.1,0-.2,0-.2-.2v-1.9c0-.1,0-.2.2-.2h3.6c3,0,5.2,2.2,5.2,5s-2.2,5-5.2,5h-3.6c-.1,0-.2,0-.2-.2v-4.7c0-.6.2-1.1.6-1.5.3-.3.8-.5,1.3-.5h.3c.1,0,.2,0,.2.2v4.5h1.4ZM51.8,51.2v-5.9c0-.1,0-.2.2-.2h2c.1,0,.2,0,.2.2v5.9c0,1.1.8,1.9,1.9,1.9s1.9-.8,1.9-1.9v-5.9c0-.1,0-.2.2-.2h2c.1,0,.2,0,.2.2v5.9c0,2.5-1.7,4.2-4.3,4.2s-4.3-1.7-4.3-4.2ZM69.2,49c.1,0,.2,0,.2.2v1.9c0,.1,0,.2-.2.2h-4.5v1.7h4.7c.1,0,.2,0,.2.2v1.9c0,.1,0,.2-.2.2h-6.9c-.1,0-.2,0-.2-.2v-9.7c0-.1,0-.2.2-.2h6.9c.1,0,.2,0,.2.2v1.9c0,.1,0,.2-.2.2h-4.7v1.7h4.5ZM73.9,53h4.6c.1,0,.2,0,.2.2v1.9c0,.1,0,.2-.2.2h-6.8c-.1,0-.2,0-.2-.2v-9.7c0-.1,0-.2.2-.2h2c.1,0,.2,0,.2.2v7.7Z"/>
</svg>