<?xml version="1.0" encoding="UTF-8"?>
<svg id="Layer_1" data-name="Layer 1" xmlns="http://www.w3.org/2000/svg" version="1.1" viewBox="0 0 2001.9 600">
  <defs>
    <style>
      .cls-1 {
        fill: none;
      }

      .cls-1, .cls-2 {
        stroke-width: 0px;
      }

      .cls-2 {
        fill: #0078ff;
      }
    </style>
  </defs>
  <rect class="cls-1" x="0" width="2001.9" height="600"/>
  <g>
    <path class="cls-2" d="M215.1,265.2c20-9.3,41.2-14.9,61.9-17.4,2.2-.3,3.2,1.2,2.9,3-2.6,15.9-4.4,32.1-5.1,48.4-.2,1.9-1.2,3.1-3.2,3.5-11.5,2.2-22.7,5.8-35.1,11.5,11.1,19.3,24.6,37.1,39.5,51.9,1.7,1.8,2.7,3.6,3.2,6.7,3.9,24.8,10.6,49.9,19.6,73.7.5,1.3.5,2.2-.2,3-.9.8-2.2.8-3.4,0-89.8-54.6-143.9-152.7-144.8-255.5,0-2.5.9-4.3,2.9-5.5,47.7-26.7,101.3-39.5,155.1-38.4,2.4,0,3.2,2.2,2.3,4.1-7.4,15.4-13.6,31.1-18.5,46.8-.5,1.9-1.7,2.8-3.7,2.9-28.8,1.5-56.8,8-82.5,18.6,1.9,14.6,5,28.9,9.2,42.7ZM314.5,204c-1.8-.2-3-1.8-2.5-3.6,5.6-16.4,12.1-31.9,19.5-46.3.9-1.7,2.3-2.4,4.3-2.2,40.5,4.6,78.9,17.3,113.1,36.4,2.1,1.2,3,3,2.9,5.5-.7,97.3-49.4,190.5-131.5,246.8-1.5,1.1-3.6.5-4.3-1.3-6-16-10.8-32.3-14.3-48-.5-2.1,0-3.7,1.6-5,49.7-39.2,84.5-97.6,92.8-164-25.3-10.4-52.7-16.9-81.8-18.5Z"/>
    <g>
      <path class="cls-2" d="M1658.4,378.6h-30.9c-3,0-2.6-2.7-2.6-2.7v-118.8h-37.8c-2.8,0-2.6-2.7-2.6-2.7v-29.3c0-2.6,2.6-2.5,2.6-2.5h103c.6,0,2.8,0,3.5,2.5l8.6,29.3c.3,1,.3,2.8-2.6,2.7h-38.5s0,118.8,0,118.8c0,0,.4,2.7-2.6,2.7Z"/>
      <path class="cls-2" d="M1716.2,222.6h33s2.2,0,3.1,2.5l30.5,107.4,30.5-107.4c.8-2.6,3.1-2.5,3.1-2.5h32.9s3-.3,2.2,2.5l-45.5,150.8s-.9,2.7-3.2,2.7h-40.7c-2.5,0-3.2-2.7-3.2-2.7l-45.1-150.8c-.8-2.9,2.1-2.5,2.1-2.5Z"/>
    </g>
    <g>
      <path class="cls-2" d="M524.7,225.1c0-1.6,1-2.6,2.6-2.6h118.1c1.5,0,2.6,1.6,2.1,2.9l-10.6,29.2c-.6,1.7-1.8,2.4-3.5,2.4h-72.2v31.6h60.2c1.5,0,2.6,1.6,2.1,2.9l-10.4,28.7c-.6,1.8-1.8,2.5-3.5,2.5h-48.4v53.2c0,1.6-1,2.6-2.6,2.6h-31.2c-1.6,0-2.6-1-2.6-2.6v-150.8Z"/>
      <path class="cls-2" d="M786.9,375.7l-54.7-150.7c-.6-1.7-1.8-2.4-3.5-2.4h-41.8c-1.8,0-2.9.7-3.5,2.4l-54.7,150.7c-.5,1.4.6,2.9,2.1,2.9h32.7c1.8,0,2.9-.8,3.4-2.5l10.5-30.4h60.5l10.5,30.4c.6,1.7,1.7,2.5,3.4,2.5h33.1c1.5,0,2.6-1.6,2.1-2.9ZM688.9,311.7l18.6-53.9,18.6,53.9h-37.2Z"/>
      <path class="cls-2" d="M802.1,225.1c0-1.6,1-2.6,2.6-2.6h36.3c1.9,0,3,.6,4,2.3l54.3,92.4v-92.1c0-1.6,1-2.6,2.6-2.6h30.6c1.6,0,2.6,1,2.6,2.6v150.8c0,1.6-1,2.6-2.6,2.6h-35.9c-1.9,0-3-.6-4-2.3l-54.7-93.1v92.8c0,1.6-1,2.6-2.6,2.6h-30.6c-1.6,0-2.6-1-2.6-2.6v-150.8Z"/>
      <path class="cls-2" d="M1023.9,344c24.8,0,43.5-18.7,43.5-43.5s-18.7-43.5-43.5-43.5h-55.4c-1.6,0-2.6-1-2.6-2.6v-29.3c0-1.6,1-2.6,2.6-2.6h55.4c45.7,0,79.9,33.5,79.9,78s-34.2,78-79.9,78h-55.4c-1.6,0-2.6-1-2.6-2.6v-72.9c0-9.8,3.1-17.4,8.6-22.9,5-5,12.8-8.3,19.8-8.3h5.4c1.6,0,2.6,1,2.6,2.6v69.6h21.6Z"/>
      <path class="cls-2" d="M1126.3,317v-91.8c0-1.6,1-2.6,2.6-2.6h31.2c1.6,0,2.6,1,2.6,2.6v91.8c0,17.7,12.4,30,30,30s30-12.3,30-30v-91.8c0-1.6,1-2.6,2.6-2.6h31.2c1.6,0,2.6,1,2.6,2.6v91.8c0,38.3-27,64.5-66.4,64.5s-66.4-26.2-66.4-64.5Z"/>
      <path class="cls-2" d="M1395.3,282.9c1.6,0,2.6,1,2.6,2.6v28.9c0,1.6-1,2.6-2.6,2.6h-69v27h73.1c1.6,0,2.6,1,2.6,2.6v29.3c0,1.6-1,2.6-2.6,2.6h-106.9c-1.6,0-2.6-1-2.6-2.6v-150.8c0-1.6,1-2.6,2.6-2.6h106.9c1.6,0,2.6,1,2.6,2.6v29.3c0,1.6-1,2.6-2.6,2.6h-73.1v25.8h69Z"/>
      <path class="cls-2" d="M1468.9,344h71.9c1.6,0,2.6,1,2.6,2.6v29.3c0,1.6-1,2.6-2.6,2.6h-105.7c-1.6,0-2.6-1-2.6-2.6v-150.8c0-1.6,1-2.6,2.6-2.6h31.2c1.6,0,2.6,1,2.6,2.6v118.9Z"/>
    </g>
  </g>
</svg>