<?xml version="1.0" encoding="UTF-8"?>
<svg id="Layer_1" data-name="Layer 1" xmlns="http://www.w3.org/2000/svg" version="1.1" viewBox="0 0 140.4 58.4">
  <defs>
    <style>
      .cls-1 {
        fill: none;
      }

      .cls-1, .cls-2 {
        stroke-width: 0px;
      }

      .cls-2 {
        fill: #fff;
      }
    </style>
  </defs>
  <rect class="cls-1" width="140.4" height="58.4"/>
  <path class="cls-2" d="M20.9,25.8c2-.9,4-1.5,6-1.7.2,0,.3.1.3.3-.3,1.6-.4,3.1-.5,4.7,0,.2-.1.3-.3.3-1.1.2-2.2.6-3.4,1.1,1.1,1.9,2.4,3.6,3.8,5.1.2.2.3.4.3.6.4,2.4,1,4.9,1.9,7.2,0,.1,0,.2,0,.3,0,0-.2,0-.3,0-8.7-5.3-14-14.9-14.1-24.9,0-.2,0-.4.3-.5,4.6-2.6,9.9-3.8,15.1-3.7.2,0,.3.2.2.4-.7,1.5-1.3,3-1.8,4.6,0,.2-.2.3-.4.3-2.8.1-5.5.8-8,1.8.2,1.4.5,2.8.9,4.2ZM30.6,19.9c-.2,0-.3-.2-.2-.3.5-1.6,1.2-3.1,1.9-4.5,0-.2.2-.2.4-.2,3.9.4,7.7,1.7,11,3.5.2.1.3.3.3.5,0,9.5-4.8,18.5-12.8,24-.2.1-.3,0-.4-.1-.6-1.6-1.1-3.1-1.4-4.7,0-.2,0-.4.2-.5,4.8-3.8,8.2-9.5,9-16-2.5-1-5.1-1.6-8-1.8ZM51.1,18.9c0-.1,0-.2.2-.2h7.6c0,0,.2.1.1.2l-.7,1.9c0,.1-.1.2-.2.2h-4.7v2h3.9c0,0,.2.1.1.2l-.7,1.9c0,.1-.1.2-.2.2h-3.1v3.4c0,.1,0,.2-.2.2h-2c-.1,0-.2,0-.2-.2v-9.7ZM61.3,18.8c0-.1.1-.2.2-.2h2.7c.1,0,.2,0,.2.2l3.5,9.7c0,0,0,.2-.1.2h-2.1c-.1,0-.2,0-.2-.2l-.7-2h-3.9l-.7,2c0,.1-.1.2-.2.2h-2.1c0,0-.2-.1-.1-.2l3.5-9.7ZM64.1,24.5l-1.2-3.5-1.2,3.5h2.4ZM69,18.9c0-.1,0-.2.2-.2h2.3c.1,0,.2,0,.3.1l3.5,6v-5.9c0-.1,0-.2.2-.2h2c.1,0,.2,0,.2.2v9.7c0,.1,0,.2-.2.2h-2.3c-.1,0-.2,0-.3-.1l-3.5-6v6c0,.1,0,.2-.2.2h-2c-.1,0-.2,0-.2-.2v-9.7ZM83.3,26.5c1.6,0,2.8-1.2,2.8-2.8s-1.2-2.8-2.8-2.8h-3.6c-.1,0-.2,0-.2-.2v-1.9c0-.1,0-.2.2-.2h3.6c2.9,0,5.2,2.2,5.2,5s-2.2,5-5.2,5h-3.6c-.1,0-.2,0-.2-.2v-4.7c0-.6.2-1.1.6-1.5s.8-.5,1.3-.5h.3c.1,0,.2,0,.2.2v4.5h1.4ZM89.9,24.8v-5.9c0-.1,0-.2.2-.2h2c.1,0,.2,0,.2.2v5.9c0,1.1.8,1.9,1.9,1.9s1.9-.8,1.9-1.9v-5.9c0-.1,0-.2.2-.2h2c.1,0,.2,0,.2.2v5.9c0,2.5-1.7,4.2-4.3,4.2s-4.3-1.7-4.3-4.2ZM107.3,22.6c.1,0,.2,0,.2.2v1.9c0,.1,0,.2-.2.2h-4.5v1.7h4.7c.1,0,.2,0,.2.2v1.9c0,.1,0,.2-.2.2h-6.9c-.1,0-.2,0-.2-.2v-9.7c0-.1,0-.2.2-.2h6.9c.1,0,.2,0,.2.2v1.9c0,.1,0,.2-.2.2h-4.7v1.7h4.5ZM112.1,26.5h4.6c.1,0,.2,0,.2.2v1.9c0,.1,0,.2-.2.2h-6.8c-.1,0-.2,0-.2-.2v-9.7c0-.1,0-.2.2-.2h2c.1,0,.2,0,.2.2v7.7ZM53.8,40c-2.1,0-3-1.2-3.3-2.5h1.2c.2.9.8,1.3,2,1.3s1.6-.4,1.6-1.1-.6-.8-2-1.1c-1.5-.3-2.6-.7-2.6-2.2s1.3-2.3,2.8-2.3,2.8,1,3,2.2h-1.2c-.2-.6-.7-1-1.7-1s-1.6.5-1.6,1.1.4.7,1.7,1c1.9.4,3,.8,3,2.3s-1.5,2.3-2.8,2.3ZM61.2,37.3h-1.9v2.6h-1.2v-7.6h3.1c1.6,0,2.7,1,2.7,2.5s-1,2.5-2.7,2.5ZM61.1,33.5h-1.8v2.7h1.8c1,0,1.5-.6,1.5-1.3s-.5-1.3-1.5-1.3ZM68.7,40c-2.2,0-3.9-1.7-3.9-3.9s1.7-3.9,3.9-3.9,3.9,1.7,3.9,3.9c0,2.2-1.7,3.9-3.9,3.9ZM68.7,38.8c1.5,0,2.7-1.2,2.7-2.7s-1.2-2.7-2.7-2.7-2.7,1.2-2.7,2.7,1.2,2.7,2.7,2.7ZM75.4,37v2.8h-1.2v-7.6h3.1c1.6,0,2.6,1,2.6,2.4s-.7,2.1-1.9,2.3l2.3,2.9h-1.5l-2.2-2.8h-1.2ZM77.2,36c1,0,1.5-.5,1.5-1.2s-.5-1.2-1.5-1.2h-1.8v2.5h1.8ZM84.2,33.5v6.4h-1.2v-6.4h-2.3v-1.2h5.8v1.2h-2.3ZM90.3,40c-2.1,0-3-1.2-3.3-2.5h1.2c.2.9.8,1.3,2,1.3s1.6-.4,1.6-1.1-.6-.8-2-1.1c-1.5-.3-2.6-.7-2.6-2.2s1.3-2.3,2.8-2.3,2.8,1,3,2.2h-1.2c-.2-.6-.7-1-1.7-1s-1.6.5-1.6,1.1.4.7,1.7,1c1.9.4,3,.8,3,2.3s-1.5,2.3-2.8,2.3ZM97.8,39.9h-3.3v-7.6h3.2c1.5,0,2.3.7,2.3,1.9s-.3,1.3-1,1.6c.9.3,1.2,1,1.2,1.9,0,1.3-.9,2.1-2.5,2.1ZM95.8,33.5v1.9h1.9c.9,0,1.2-.4,1.2-1s-.3-1-1.2-1h-1.8ZM97.8,36.5h-2v2.2h2c1,0,1.3-.4,1.3-1.1s-.3-1.1-1.3-1.1ZM105.4,40c-2.2,0-3.9-1.7-3.9-3.9s1.7-3.9,3.9-3.9,3.9,1.7,3.9,3.9c0,2.2-1.7,3.9-3.9,3.9ZM105.4,38.8c1.5,0,2.7-1.2,2.7-2.7s-1.2-2.7-2.7-2.7-2.7,1.2-2.7,2.7,1.2,2.7,2.7,2.7ZM114.4,40c-2.2,0-3.9-1.7-3.9-3.9s1.7-3.9,3.9-3.9,3.9,1.7,3.9,3.9c0,2.2-1.7,3.9-3.9,3.9ZM114.4,38.8c1.5,0,2.7-1.2,2.7-2.7s-1.2-2.7-2.7-2.7-2.7,1.2-2.7,2.7,1.2,2.7,2.7,2.7ZM121.1,36.2v3.6h-1.2v-7.6h1.2v3.5l3.1-3.5h1.5l-3.3,3.7,3.4,3.9h-1.5l-3.2-3.6Z"/>
</svg>