<?xml version="1.0" encoding="UTF-8"?>
<svg id="Layer_1" data-name="Layer 1" xmlns="http://www.w3.org/2000/svg" version="1.1" viewBox="0 0 1000 607">
  <defs>
    <style>
      .cls-1 {
        fill: none;
      }

      .cls-1, .cls-2 {
        stroke-width: 0px;
      }

      .cls-2 {
        fill: #0078ff;
      }
    </style>
  </defs>
  <rect class="cls-1" y="0" width="1000" height="607"/>
  <g>
    <path class="cls-2" d="M434.3,202.6c15.3-7.1,31.4-11.4,47.3-13.3,1.7-.2,2.4.9,2.2,2.3-2,12.2-3.4,24.5-3.9,37-.1,1.4-.9,2.4-2.5,2.7-8.8,1.7-17.4,4.4-26.8,8.7,8.5,14.8,18.8,28.3,30.1,39.7,1.3,1.4,2.1,2.8,2.4,5.1,3,19,8.1,38.1,15,56.3.4,1,.4,1.7-.2,2.3-.7.6-1.7.6-2.6,0-68.6-41.7-109.9-116.6-110.7-195.2,0-1.9.7-3.3,2.2-4.2,36.4-20.4,77.4-30.2,118.5-29.3,1.8,0,2.5,1.7,1.8,3.1-5.7,11.8-10.4,23.8-14.1,35.8-.4,1.4-1.3,2.1-2.8,2.2-22,1.1-43.4,6.1-63,14.2,1.4,11.2,3.8,22.1,7,32.6ZM510.3,155.8c-1.4-.1-2.3-1.4-1.9-2.7,4.3-12.5,9.3-24.4,14.9-35.3.7-1.3,1.8-1.8,3.3-1.7,31,3.5,60.3,13.2,86.4,27.8,1.6.9,2.3,2.3,2.2,4.2-.5,74.4-37.8,145.5-100.5,188.6-1.2.8-2.7.4-3.3-1-4.6-12.2-8.3-24.6-10.9-36.6-.4-1.6,0-2.8,1.2-3.8,37.9-29.9,64.5-74.5,70.9-125.3-19.3-8-40.3-12.9-62.5-14.1Z"/>
    <path class="cls-2" d="M114.6,403.3c0-.9.6-1.5,1.5-1.5h68.6c.8,0,1.5.9,1.2,1.7l-6.2,17c-.4,1-1,1.4-2.1,1.4h-41.9v18.4h35c.8,0,1.5.9,1.2,1.7l-6,16.7c-.4,1-1,1.4-2.1,1.4h-28.1v30.9c0,.9-.6,1.5-1.5,1.5h-18.1c-.9,0-1.5-.6-1.5-1.5v-87.6ZM206.7,403.2c.4-1,1-1.4,2.1-1.4h24.3c1,0,1.7.4,2.1,1.4l31.8,87.5c.3.8-.4,1.7-1.2,1.7h-19.2c-1,0-1.6-.5-2-1.5l-6.1-17.6h-35.2l-6.1,17.6c-.3,1-1,1.5-2,1.5h-19c-.8,0-1.5-.9-1.2-1.7l31.8-87.5ZM231.6,453.6l-10.8-31.3-10.8,31.3h21.6ZM275.7,403.3c0-.9.6-1.5,1.5-1.5h21.1c1.1,0,1.8.4,2.3,1.3l31.5,53.6v-53.5c0-.9.6-1.5,1.5-1.5h17.8c.9,0,1.5.6,1.5,1.5v87.6c0,.9-.6,1.5-1.5,1.5h-20.8c-1.1,0-1.8-.4-2.3-1.3l-31.8-54.1v53.9c0,.9-.6,1.5-1.5,1.5h-17.8c-.9,0-1.5-.6-1.5-1.5v-87.6ZM404.5,472.4c14.4,0,25.3-10.9,25.3-25.3s-10.9-25.3-25.3-25.3h-32.2c-.9,0-1.5-.6-1.5-1.5v-17c0-.9.6-1.5,1.5-1.5h32.2c26.5,0,46.4,19.5,46.4,45.3s-19.9,45.3-46.4,45.3h-32.2c-.9,0-1.5-.6-1.5-1.5v-42.4c0-5.7,1.8-10.1,5-13.3,2.9-2.9,7.4-4.8,11.5-4.8h3.1c.9,0,1.5.6,1.5,1.5v40.4h12.6ZM464,456.7v-53.3c0-.9.6-1.5,1.5-1.5h18.1c.9,0,1.5.6,1.5,1.5v53.3c0,10.3,7.2,17.4,17.4,17.4s17.4-7.1,17.4-17.4v-53.3c0-.9.6-1.5,1.5-1.5h18.1c.9,0,1.5.6,1.5,1.5v53.3c0,22.2-15.7,37.5-38.5,37.5s-38.5-15.2-38.5-37.5ZM620.2,436.9c.9,0,1.5.6,1.5,1.5v16.8c0,.9-.6,1.5-1.5,1.5h-40.1v15.7h42.5c.9,0,1.5.6,1.5,1.5v17c0,.9-.6,1.5-1.5,1.5h-62.1c-.9,0-1.5-.6-1.5-1.5v-87.6c0-.9.6-1.5,1.5-1.5h62.1c.9,0,1.5.6,1.5,1.5v17c0,.9-.6,1.5-1.5,1.5h-42.5v15h40.1ZM663,472.4h41.7c.9,0,1.5.6,1.5,1.5v17c0,.9-.6,1.5-1.5,1.5h-61.4c-.9,0-1.5-.6-1.5-1.5v-87.6c0-.9.6-1.5,1.5-1.5h18.1c.9,0,1.5.6,1.5,1.5v69.1Z"/>
    <g>
      <path class="cls-2" d="M773,492.5h-18c-1.7,0-1.5-1.6-1.5-1.6v-69h-22c-1.6,0-1.5-1.6-1.5-1.6v-17c0-1.5,1.5-1.5,1.5-1.5h59.8c.4,0,1.6,0,2,1.5l5,17c.2.6.2,1.6-1.5,1.6h-22.4s0,69,0,69c0,0,.2,1.6-1.5,1.6Z"/>
      <path class="cls-2" d="M806.6,401.9h19.2s1.3,0,1.8,1.5l17.7,62.4,17.7-62.4c.5-1.5,1.8-1.5,1.8-1.5h19.1s1.8-.1,1.3,1.5l-26.4,87.6s-.5,1.6-1.8,1.6h-23.6c-1.4,0-1.8-1.6-1.8-1.6l-26.2-87.6c-.5-1.7,1.2-1.5,1.2-1.5Z"/>
    </g>
  </g>
</svg>