<?xml version="1.0" encoding="UTF-8"?>
<svg id="Layer_1" data-name="Layer 1" xmlns="http://www.w3.org/2000/svg" version="1.1" viewBox="0 0 131.5 58.4">
  <defs>
    <style>
      .cls-1 {
        fill: none;
      }

      .cls-1, .cls-2 {
        stroke-width: 0px;
      }

      .cls-2 {
        fill: #fff;
      }
    </style>
  </defs>
  <rect class="cls-1" width="131.5" height="58.4"/>
  <g>
    <path class="cls-2" d="M56,33.4h-3.7v2h3.4v1.2h-3.4v3.2h-1.2v-7.6h4.9v1.2Z"/>
    <path class="cls-2" d="M58.9,32.3h1.6l2.9,7.6h-1.3l-.8-2h-3.3l-.8,2h-1.3l2.9-7.6ZM60.9,36.7l-1.2-3.2-1.2,3.2h2.4Z"/>
    <path class="cls-2" d="M63.6,36.1c0-2.2,1.7-3.9,3.9-3.9s3.1,1.1,3.6,2.6h-1.3c-.4-.9-1.3-1.5-2.3-1.5-1.5,0-2.7,1.2-2.7,2.7s1.1,2.7,2.7,2.7,1.9-.6,2.3-1.5h1.3c-.5,1.6-1.9,2.6-3.6,2.6s-3.9-1.7-3.9-3.9Z"/>
    <path class="cls-2" d="M77.4,33.4h-3.7v2h3.4v1.2h-3.4v2.1h3.7v1.2h-4.9v-7.6h4.9v1.2Z"/>
    <path class="cls-2" d="M86.2,36.1c0,2.2-1.7,3.9-3.9,3.9s-3.9-1.7-3.9-3.9,1.7-3.9,3.9-3.9,3.9,1.7,3.9,3.9ZM79.6,36.1c0,1.6,1.2,2.7,2.7,2.7s2.7-1.2,2.7-2.7-1.2-2.7-2.7-2.7-2.7,1.2-2.7,2.7Z"/>
    <path class="cls-2" d="M92.4,33.4h-3.7v2h3.4v1.2h-3.4v3.2h-1.2v-7.6h4.9v1.2Z"/>
    <path class="cls-2" d="M98.7,33.4h-3.7v2h3.4v1.2h-3.4v3.2h-1.2v-7.6h4.9v1.2Z"/>
  </g>
  <path class="cls-2" d="M20.9,25.8c2-.9,4-1.5,6-1.7.2,0,.3.1.3.3-.3,1.6-.4,3.1-.5,4.7,0,.2-.1.3-.3.3-1.1.2-2.2.6-3.4,1.1,1.1,1.9,2.4,3.6,3.8,5.1.2.2.3.4.3.6.4,2.4,1,4.9,1.9,7.2,0,.1,0,.2,0,.3,0,0-.2,0-.3,0-8.7-5.3-14-14.9-14.1-24.9,0-.2,0-.4.3-.5,4.6-2.6,9.9-3.8,15.1-3.7.2,0,.3.2.2.4-.7,1.5-1.3,3-1.8,4.6,0,.2-.2.3-.4.3-2.8.1-5.5.8-8,1.8.2,1.4.5,2.8.9,4.2ZM30.6,19.9c-.2,0-.3-.2-.2-.3.5-1.6,1.2-3.1,1.9-4.5,0-.2.2-.2.4-.2,3.9.4,7.7,1.7,11,3.5.2.1.3.3.3.5,0,9.5-4.8,18.5-12.8,24-.2.1-.3,0-.4-.1-.6-1.6-1.1-3.1-1.4-4.7,0-.2,0-.4.2-.5,4.8-3.8,8.2-9.5,9-16-2.5-1-5.1-1.6-8-1.8ZM51.1,18.9c0-.1,0-.2.2-.2h7.6c0,0,.2.1.1.2l-.7,1.9c0,.1-.1.2-.2.2h-4.7v2h3.9c0,0,.2.1.1.2l-.7,1.9c0,.1-.1.2-.2.2h-3.1v3.4c0,.1,0,.2-.2.2h-2c-.1,0-.2,0-.2-.2v-9.7ZM61.3,18.8c0-.1.1-.2.2-.2h2.7c.1,0,.2,0,.2.2l3.5,9.7c0,0,0,.2-.1.2h-2.1c-.1,0-.2,0-.2-.2l-.7-2h-3.9l-.7,2c0,.1-.1.2-.2.2h-2.1c0,0-.2-.1-.1-.2l3.5-9.7ZM64.1,24.5l-1.2-3.5-1.2,3.5h2.4ZM69,18.9c0-.1,0-.2.2-.2h2.3c.1,0,.2,0,.3.1l3.5,6v-5.9c0-.1,0-.2.2-.2h2c.1,0,.2,0,.2.2v9.7c0,.1,0,.2-.2.2h-2.3c-.1,0-.2,0-.3-.1l-3.5-6v6c0,.1,0,.2-.2.2h-2c-.1,0-.2,0-.2-.2v-9.7ZM83.3,26.5c1.6,0,2.8-1.2,2.8-2.8s-1.2-2.8-2.8-2.8h-3.6c-.1,0-.2,0-.2-.2v-1.9c0-.1,0-.2.2-.2h3.6c3,0,5.2,2.2,5.2,5s-2.2,5-5.2,5h-3.6c-.1,0-.2,0-.2-.2v-4.7c0-.6.2-1.1.6-1.5s.8-.5,1.3-.5h.3c.1,0,.2,0,.2.2v4.5h1.4ZM89.9,24.8v-5.9c0-.1,0-.2.2-.2h2c.1,0,.2,0,.2.2v5.9c0,1.1.8,1.9,1.9,1.9s1.9-.8,1.9-1.9v-5.9c0-.1,0-.2.2-.2h2c.1,0,.2,0,.2.2v5.9c0,2.5-1.7,4.2-4.3,4.2s-4.3-1.7-4.3-4.2ZM107.3,22.6c.1,0,.2,0,.2.2v1.9c0,.1,0,.2-.2.2h-4.5v1.7h4.7c.1,0,.2,0,.2.2v1.9c0,.1,0,.2-.2.2h-6.9c-.1,0-.2,0-.2-.2v-9.7c0-.1,0-.2.2-.2h6.9c.1,0,.2,0,.2.2v1.9c0,.1,0,.2-.2.2h-4.7v1.7h4.5ZM112.1,26.5h4.6c.1,0,.2,0,.2.2v1.9c0,.1,0,.2-.2.2h-6.8c-.1,0-.2,0-.2-.2v-9.7c0-.1,0-.2.2-.2h2c.1,0,.2,0,.2.2v7.7Z"/>
</svg>