<?xml version="1.0" encoding="UTF-8"?>
<svg id="Layer_1" data-name="Layer 1" xmlns="http://www.w3.org/2000/svg" version="1.1" viewBox="0 0 1314.6 584.1">
  <defs>
    <style>
      .cls-1 {
        fill: none;
      }

      .cls-1, .cls-2 {
        stroke-width: 0px;
      }

      .cls-2 {
        fill: #fff;
      }
    </style>
  </defs>
  <rect class="cls-1" width="1314.6" height="584.1"/>
  <path class="cls-2" d="M290.6,434.6c.5,1.3.5,2.2-.2,2.9-.8.8-2.1.8-3.3,0-87.4-53.2-140.1-148.6-141-248.7,0-2.4.8-4.2,2.9-5.3,46.4-26,98.6-38.5,151-37.4,2.3,0,3.2,2.1,2.3,4-7.2,15-13.3,30.3-18,45.6-.5,1.8-1.7,2.7-3.6,2.8-28,1.4-55.3,7.8-80.3,18.2,1.8,14.2,4.9,28.2,9,41.6,19.5-9,40.1-14.5,60.3-16.9,2.2-.3,3.1,1.2,2.9,2.9-2.6,15.5-4.3,31.3-5,47.1-.2,1.8-1.1,3-3.2,3.4-11.2,2.2-22.1,5.6-34.2,11.1,10.8,18.8,24,36.1,38.4,50.5,1.7,1.7,2.6,3.5,3.1,6.5,3.8,24.2,10.3,48.6,19.1,71.7ZM436.9,183.4c-33.3-18.6-70.6-31-110.1-35.5-2-.2-3.4.5-4.2,2.1-7.2,14-13.5,29.1-19,45-.5,1.7.7,3.3,2.4,3.5,28.3,1.5,55,7.8,79.6,18-8.1,64.7-42,121.6-90.4,159.7-1.6,1.2-2,2.8-1.6,4.8,3.4,15.3,8.1,31.1,13.9,46.7.7,1.7,2.6,2.3,4.1,1.3,52.6-36.1,91.1-87.6,111.5-145.7,10.6-30.2,16.3-62.2,16.6-94.6,0-2.4-.8-4.2-2.9-5.3ZM512.3,287.7h20.2c1,0,1.7-.7,1.7-1.7v-34.3h31.2c1.1,0,1.9-.5,2.3-1.6l6.7-18.5c.3-.9-.4-1.9-1.3-1.9h-38.9v-20.4h46.6c1.1,0,1.9-.5,2.3-1.5l6.9-18.9c.3-.9-.4-1.9-1.3-1.9h-76.3c-1,0-1.7.7-1.7,1.7v97.4c0,1,.7,1.7,1.7,1.7ZM577.6,285.8l35.3-97.4c.4-1.1,1.1-1.5,2.3-1.5h27c1.1,0,1.9.5,2.3,1.5l35.3,97.4c.3.9-.4,1.9-1.3,1.9h-21.4c-1.1,0-1.8-.5-2.2-1.6l-6.8-19.6h-39.1l-6.8,19.6c-.3,1.1-1.1,1.6-2.2,1.6h-21.1c-.9,0-1.7-1-1.3-1.9ZM616.6,244.5h24.1l-12-34.8-12,34.8ZM712.9,286v-59.9l35.3,60.1c.6,1.1,1.3,1.5,2.6,1.5h23.2c1,0,1.7-.7,1.7-1.7v-97.4c0-1-.7-1.7-1.7-1.7h-19.8c-1,0-1.7.7-1.7,1.7v59.5l-35.1-59.7c-.6-1.1-1.3-1.5-2.6-1.5h-23.5c-1,0-1.7.7-1.7,1.7v97.4c0,1,.7,1.7,1.7,1.7h19.8c1,0,1.7-.7,1.7-1.7ZM797.2,287.7h35.8c29.5,0,51.6-21.6,51.6-50.4s-22.1-50.4-51.6-50.4h-35.8c-1,0-1.7.7-1.7,1.7v19c0,1,.7,1.7,1.7,1.7h35.8c16,0,28.1,12.1,28.1,28.1s-12.1,28.1-28.1,28.1h-14v-45c0-1-.7-1.7-1.7-1.7h-3.5c-4.5,0-9.5,2.2-12.8,5.4s-5.6,8.5-5.6,14.8v47.1c0,1,.7,1.7,1.7,1.7ZM983.2,186.9h-20.2c-1,0-1.7.7-1.7,1.7v59.3c0,11.4-8.1,19.4-19.4,19.4s-19.4-7.9-19.4-19.4v-59.3c0-1-.7-1.7-1.7-1.7h-20.2c-1,0-1.7.7-1.7,1.7v59.3c0,24.7,17.5,41.7,42.9,41.7s42.9-16.9,42.9-41.7v-59.3c0-1-.7-1.7-1.7-1.7ZM1075.6,186.9h-69.1c-1,0-1.7.7-1.7,1.7v97.4c0,1,.7,1.7,1.7,1.7h69.1c1,0,1.7-.7,1.7-1.7v-19c0-1-.7-1.7-1.7-1.7h-47.2v-17.5h44.6c1,0,1.7-.7,1.7-1.7v-18.7c0-1-.7-1.7-1.7-1.7h-44.6v-16.7h47.2c1,0,1.7-.7,1.7-1.7v-19c0-1-.7-1.7-1.7-1.7ZM1166.9,265.4h-46.4v-76.8c0-1-.7-1.7-1.7-1.7h-20.2c-1,0-1.7.7-1.7,1.7v97.4c0,1,.7,1.7,1.7,1.7h68.3c1,0,1.7-.7,1.7-1.7v-19c0-1-.7-1.7-1.7-1.7ZM773.7,322.9h-58.3v11.6h23v64h12.2v-64h23.1v-11.6ZM879.8,354c-12.5-2.7-16.9-4.4-16.9-9.8s5.5-11.1,15.7-11.1,15.3,4.1,17.5,10.4h12.3c-2.2-12-10.9-21.8-29.9-21.8s-27.8,7.9-27.8,22.9,11.4,18.2,26.2,21.5c14,3.1,20.2,4.3,20.2,11.3s-5.8,11-16,11-17.8-4.5-20.1-13.3h-12.3c2,13.1,11.3,24.7,32.5,24.7s28.2-6.5,28.2-23-10.5-18.6-29.6-22.8ZM813.9,322.9l29.2,75.6h-13l-7.7-20.3h-32.9l-7.7,20.3h-13l29.3-75.6h15.6ZM818.1,366.7l-12-31.7-12,31.7h24ZM948.4,359l-19.7-36.1h-13.8l27.3,49.8v25.8h12.2v-26c.1,0,27.3-49.6,27.3-49.6h-13.7l-19.7,36.1ZM691.7,379.9l-36.9-57h-14.4v75.6h12v-57l36.9,57h14.4v-75.6h-12v57ZM601.3,322.9l29.2,75.6h-13l-7.7-20.3h-32.9l-7.7,20.3h-13l29.3-75.6h15.6ZM605.5,366.7l-12-31.7-12,31.7h24ZM522.8,355v-20.4h38.5l4.2-11.7h-54.9v75.6h12.2v-31.9h26.8l4.2-11.7h-31Z"/>
</svg>