<?xml version="1.0" encoding="UTF-8"?>
<svg id="Layer_1" data-name="Layer 1" xmlns="http://www.w3.org/2000/svg" version="1.1" viewBox="0 0 1000 692.4">
  <defs>
    <style>
      .cls-1 {
        fill: none;
      }

      .cls-1, .cls-2 {
        stroke-width: 0px;
      }

      .cls-2 {
        fill: #0078ff;
      }
    </style>
  </defs>
  <rect class="cls-1" y="0" width="1000" height="692.4"/>
  <g>
    <path class="cls-2" d="M248,306c23.1-10.7,47.5-17.2,71.4-20.1,2.6-.4,3.7,1.4,3.4,3.5-3,18.4-5.1,37.1-5.9,55.9-.2,2.1-1.3,3.6-3.8,4-13.3,2.6-26.2,6.7-40.5,13.2,0,0,0,0,0,0,12.9,22.3,28.4,42.8,45.5,59.9,2,2.1,3.1,4.2,3.7,7.7,4.5,28.7,12.2,57.6,22.6,85,.6,1.5.6,2.6-.3,3.5-1,.9-2.5.9-3.9,0-103.6-63-166.1-176.2-167.1-294.8,0-2.9,1-5,3.4-6.3,55-30.8,116.9-45.6,179-44.3,2.8,0,3.7,2.5,2.7,4.7-8.6,17.8-15.7,35.9-21.3,54-.6,2.1-2,3.2-4.3,3.3-33.2,1.7-65.5,9.2-95.2,21.5,2.1,16.9,5.8,33.4,10.6,49.3ZM362.7,235.4c-2.1-.2-3.5-2.1-2.9-4.1,6.5-18.9,14-36.8,22.5-53.4,1-2,2.7-2.8,5-2.5,46.8,5.3,91.1,20,130.5,42.1,2.4,1.3,3.5,3.5,3.4,6.3-.8,112.3-57.1,219.8-151.8,284.8-1.8,1.3-4.1.5-4.9-1.5-6.9-18.5-12.5-37.2-16.5-55.4-.5-2.4,0-4.3,1.9-5.7,57.3-45.2,97.5-112.6,107.1-189.3,0,0,0,0,0,0-29.2-12.1-60.8-19.6-94.4-21.3Z"/>
    <g>
      <path class="cls-2" d="M619.9,429.7h-33.1c-3.2,0-2.8-2.9-2.8-2.9v-127.1h-40.5c-3,0-2.8-2.9-2.8-2.9v-31.3c0-2.7,2.8-2.7,2.8-2.7h110.1c.7,0,2.9,0,3.8,2.7l9.2,31.3c.3,1.1.4,3-2.8,2.9h-41.2s0,127.1,0,127.1c0,0,.5,2.9-2.8,2.9Z"/>
      <path class="cls-2" d="M681.8,262.7h35.3s2.4,0,3.4,2.7l32.7,114.9,32.7-114.9c.8-2.8,3.4-2.7,3.4-2.7h35.2s3.3-.3,2.3,2.7l-48.7,161.3s-.9,2.9-3.4,2.9h-43.5c-2.6,0-3.4-2.9-3.4-2.9l-48.2-161.3c-.9-3.1,2.3-2.7,2.3-2.7Z"/>
    </g>
  </g>
</svg>